<?xml version="1.0" encoding="utf-8"?>
<!-- Generator: Adobe Illustrator 21.1.0, SVG Export Plug-In . SVG Version: 6.00 Build 0)  -->
<svg version="1.1" id="Layer_1" xmlns="http://www.w3.org/2000/svg" xmlns:xlink="http://www.w3.org/1999/xlink" x="0px" y="0px"
	 viewBox="0 0 499.983 151.129" enable-background="new 0 0 499.983 151.129" xml:space="preserve">
<g>
	<path fill="#FFFFFF" d="M151.049,74.186c-0.001-13.655,0.057-27.31-0.058-40.964c-0.019-2.29,0.65-2.91,2.843-2.767
		c2.854,0.186,5.735,0.16,8.592-0.001c1.623-0.092,1.954,0.425,1.941,1.948c-0.07,8.175,0.01,16.352-0.057,24.528
		c-0.015,1.791,0.228,2.369,2.214,1.7c6.25-2.105,12.649-3.523,19.305-3.539c10.482-0.026,16.684,5.846,16.765,16.284
		c0.115,15.003,0.025,30.007,0.067,45.01c0.004,1.421-0.182,2.121-1.904,2.039c-3.279-0.157-6.576-0.123-9.856,0.029
		c-1.51,0.07-1.594-0.508-1.591-1.752c0.029-14.918,0.003-29.835-0.021-44.753c-0.006-3.862-1.952-5.791-5.742-5.645
		c-5.85,0.224-11.501,1.43-17.021,3.392c-1.727,0.614-2.229,1.521-2.22,3.309c0.074,14.244-0.007,28.49,0.096,42.734
		c0.016,2.191-0.43,2.941-2.747,2.708c-2.67-0.269-5.395-0.178-8.083-0.029c-1.951,0.108-2.58-0.459-2.567-2.505
		C151.093,102.001,151.05,88.093,151.049,74.186z"/>
	<path fill="#FFFFFF" d="M386.629,74.529c0.001-13.65,0.086-27.3-0.072-40.948c-0.031-2.694,0.815-3.317,3.268-3.122
		c2.512,0.199,5.065,0.2,7.576-0.005c2.066-0.169,2.654,0.369,2.638,2.529c-0.109,14.66-0.088,29.321-0.012,43.982
		c0.007,1.262-0.995,3.431,0.799,3.707c2.139,0.329,4.684,1.09,6.614-1.107c3.963-4.511,7.464-9.34,10.314-14.626
		c1.078-1.999,2.139-4.02,3.011-6.113c0.675-1.618,1.591-2.307,3.415-2.224c3.363,0.152,6.742,0.139,10.108,0.01
		c2.14-0.082,2.721,0.281,1.548,2.403c-4.538,8.211-9.649,16.005-16.178,22.783c-1.265,1.313-1.436,2.197-0.234,3.732
		c7.394,9.449,13.385,19.785,18.857,30.434c1.24,2.413,1.223,2.412-1.558,2.407c-3.623-0.006-7.25-0.093-10.867,0.052
		c-1.707,0.069-2.507-0.493-3.119-2.083c-3.406-8.858-7.875-17.123-14.062-24.386c-1.392-1.634-6.178-2.719-8.063-1.877
		c-0.989,0.442-0.602,1.296-0.604,1.971c-0.031,8.004-0.076,16.009,0.018,24.013c0.021,1.781-0.239,2.536-2.272,2.374
		c-2.763-0.221-5.572-0.234-8.332,0.005c-2.246,0.195-2.865-0.428-2.847-2.709C386.682,101.997,386.628,88.262,386.629,74.529z"/>
	<path fill="#FFFFFF" d="M499.934,83.741c0,8.174-0.039,16.348,0.034,24.521c0.014,1.564-0.485,2.39-1.893,3.121
		c-10.092,5.242-20.764,8.315-32.147,8.682c-3.445,0.111-6.901-0.179-10.09-1.756c-5.125-2.535-7.652-6.949-7.815-12.383
		c-0.308-10.271-0.164-20.555-0.194-30.834c-0.016-5.477,0.098-10.958-0.063-16.43c-0.055-1.852,0.636-2.085,2.165-2.041
		c2.947,0.085,5.904,0.14,8.845-0.023c1.992-0.11,2.353,0.682,2.345,2.487c-0.065,14.578-0.04,29.156-0.029,43.734
		c0.003,4.477,1.463,5.904,5.922,5.838c5.954-0.088,11.648-1.417,17.24-3.413c1.748-0.624,2.244-1.506,2.235-3.293
		c-0.071-13.988-0.04-27.976-0.04-41.964c0-3.343,0.001-3.343,3.464-3.339c2.528,0.003,5.066,0.142,7.581-0.037
		c2.102-0.149,2.513,0.693,2.491,2.61c-0.094,8.173-0.04,16.347-0.04,24.521C499.939,83.741,499.936,83.741,499.934,83.741z"/>
	<path fill="#FFFFFF" d="M279.744,91.107c0-8.169,0.034-16.338-0.032-24.506c-0.012-1.447,0.391-2.207,1.734-2.915
		c8.718-4.594,18.122-6.589,27.801-7.639c1.223-0.133,1.662,0.335,1.629,1.546c-0.06,2.188-0.247,4.41,0.042,6.56
		c0.368,2.738-0.996,3.293-3.248,3.389c-3.881,0.165-7.653,0.992-11.42,1.933c-2.237,0.559-3.081,1.522-3.058,3.964
		c0.132,14.147,0.036,28.295,0.106,42.443c0.009,1.881-0.282,2.73-2.455,2.556c-2.929-0.233-5.895-0.156-8.836-0.026
		c-1.789,0.079-2.292-0.548-2.275-2.295c0.077-8.336,0.035-16.674,0.035-25.011C279.758,91.107,279.751,91.107,279.744,91.107z"/>
	<path fill="#FFFFFF" d="M121.812,75.714c-0.004,0-0.007,0-0.011,0c0-20.226,0.007-40.451-0.003-60.677
		c-0.004-8.977-6.064-15.021-15.108-15.026C76.182-0.004,45.675-0.003,15.168,0.009C6.163,0.012,0.027,6.042,0.02,15.057
		C-0.01,55.34-0.008,95.623,0.039,135.906c0.011,9.222,6.038,15.108,15.295,15.113c30.254,0.019,60.51-0.143,90.762,0.109
		c8.373,0.07,15.957-5.993,15.807-15.75C121.598,115.495,121.812,95.603,121.812,75.714z M105.219,146.001
		c-29.581,0.006-59.164-0.135-88.743,0.103c-6.732,0.054-11.609-5.297-11.533-11.492c0.243-19.718,0.09-39.441,0.089-59.161
		c-0.002-19.721-0.004-39.442,0-59.162C5.033,9.243,9.328,4.983,16.373,4.985c29.666,0.007,59.331,0.008,88.997,0.004
		c7.258-0.001,11.395,4.146,11.395,11.451c-0.001,39.357,0,78.715,0.001,118.072C116.766,142.013,112.778,145.999,105.219,146.001z"
		/>
	<path fill="#FFFFFF" d="M267.454,72.945c-1.512-9.973-7.073-16.032-16.921-17.33c-10.546-1.39-20.995-0.251-31.242,2.665
		c-1.543,0.439-2.057,1.413-2.405,2.846c-1.358,5.586-2.128,11.259-2.392,16.98c-0.42,9.083-0.924,18.195,1.433,27.134
		c1.88,7.131,6.378,11.707,13.555,13.525c10.791,2.733,21.184,0.885,31.374-2.897c5.232-1.942,5.217-1.988,4.071-7.509
		c-0.137-0.658-0.406-1.305-0.437-1.965c-0.112-2.392-1.02-2.781-3.302-1.95c-7.379,2.688-14.924,4.654-22.911,4.152
		c-5.444-0.342-8.58-2.861-9.652-8.23c-0.526-2.633-0.677-5.339-1.05-8.004c-0.262-1.877,0.229-2.669,2.377-2.612
		c5.976,0.158,11.959,0.055,17.94,0.055c6.065,0,12.13-0.061,18.193,0.038c1.793,0.029,2.294-0.562,2.277-2.307
		C268.314,82.651,268.188,77.785,267.454,72.945z M249.719,80.364c-2.862-0.001-5.723,0-8.585-0.001
		c-3.956-0.001-7.912-0.048-11.867,0.024c-1.448,0.026-1.919-0.493-1.822-1.912c0.219-3.192,0.54-6.366,1.046-9.528
		c0.176-1.097,0.656-1.664,1.733-1.789c5.434-0.63,10.886-1.235,16.347-0.662c5.052,0.53,7.446,3.045,8.183,8.051
		C255.61,80.366,255.61,80.365,249.719,80.364z"/>
	<path fill="#FFFFFF" d="M374.839,87.099c0.131-4.994-0.293-9.928-1.685-14.747c-2.51-8.689-8.108-14.149-16.967-16.188
		c-5.141-1.183-10.342-1.39-15.557-0.744c-10.816,1.34-18.326,7.023-21.518,17.533c-3.105,10.227-2.966,20.643,0.139,30.863
		c2.347,7.727,7.663,12.709,15.518,14.84c5.596,1.518,11.306,1.799,17.009,0.993c10.508-1.484,17.813-7.041,21.14-17.342
		C374.514,97.364,374.992,92.268,374.839,87.099z M359.516,101.005c-1.731,3.753-4.596,6.135-8.617,7.098
		c-3.921,0.939-7.866,0.841-11.723-0.192c-4.415-1.183-6.891-4.399-7.869-8.693c-1.629-7.145-1.728-14.368-0.057-21.506
		c1.77-7.564,6.521-11.206,14.269-11.279c1.929-0.018,3.895-0.036,5.783,0.297c5.871,1.036,8.958,4.66,10.01,11.669
		c0.374,2.49,0.473,5.021,0.663,7.15C361.873,91.079,361.728,96.208,359.516,101.005z"/>
	<path fill="#FFFFFF" d="M28.203,75.866c0-5.848-0.001-11.731,0-17.614c0.002-11.716,0.047-23.432-0.037-35.147
		c-0.013-1.873,0.453-2.48,2.376-2.43c4.21,0.109,8.429,0.059,12.637-0.113c1.885-0.077,2.203,0.657,2.192,2.334
		c-0.068,10.283,0.013,20.566-0.078,30.848c-0.018,2.058,0.419,2.35,2.367,1.691c8.005-2.71,16.187-4.631,24.711-4.477
		c2.089,0.038,4.216,0.272,6.248,0.746c9.423,2.2,14.114,8.126,14.159,18.194c0.088,19.47,0.002,38.94,0.062,58.411
		c0.005,1.748-0.603,2.105-2.189,2.065c-3.959-0.1-7.928-0.159-11.881,0.014c-2.075,0.091-2.482-0.63-2.475-2.56
		c0.07-18.711,0.045-37.423,0.042-56.135c-0.001-4.332-1.431-5.825-5.802-6.122c-7.372-0.502-14.349,1.495-21.327,3.418
		c-6.253,1.724-12.342,3.948-18.395,6.27C30.057,75.55,29.357,76.132,28.203,75.866z"/>
	<path fill="#FFFFFF" d="M68.035,42.31c4.832-6.664,8.574-13.324,11.71-20.323c0.447-0.997,1.113-1.301,2.17-1.292
		c5.136,0.043,10.274,0.075,15.409-0.012c1.652-0.028,1.61,0.563,1.049,1.733c-3.211,6.7-6.994,13.044-11.607,18.883
		c-0.502,0.635-0.979,1.034-1.854,1.029C79.459,42.293,74.005,42.31,68.035,42.31z"/>
	<path fill="#FFFFFF" d="M29.313,96.337c5.152,5.271,10.296,10.549,15.465,15.802c0.66,0.671,0.758,1.166,0.047,1.879
		c-5.212,5.226-10.397,10.479-16.015,16.153c0-11.556,0-22.478,0-33.399C28.977,96.627,29.145,96.482,29.313,96.337z"/>
</g>
<g>
</g>
<g>
</g>
<g>
</g>
<g>
</g>
<g>
</g>
<g>
</g>
<g>
</g>
<g>
</g>
<g>
</g>
<g>
</g>
<g>
</g>
<g>
</g>
<g>
</g>
<g>
</g>
<g>
</g>
</svg>
