<?xml version="1.0" encoding="utf-8"?>
<!-- Generator: Adobe Illustrator 21.0.2, SVG Export Plug-In . SVG Version: 6.00 Build 0)  -->
<svg version="1.1" id="Layer_1" xmlns="http://www.w3.org/2000/svg" xmlns:xlink="http://www.w3.org/1999/xlink" x="0px" y="0px"
	 viewBox="0 0 500.3 118.5" style="enable-background:new 0 0 500.3 118.5;" xml:space="preserve">
<style type="text/css">
	.st0{fill:#FFFFFF;}
</style>
<g>
	<path class="st0" d="M0,116.5V2h22.8l27.1,81.1c2.5,7.6,4.3,13.2,5.5,16.9c1.3-4.2,3.3-10.3,6.1-18.4L88.9,2h20.4v114.5H94.7V20.7
		l-33.3,95.8H47.7L14.6,19.1v97.5H0z"/>
	<path class="st0" d="M129.1,60.8c0-19,5.1-33.9,15.3-44.6C154.6,5.4,167.8,0,183.9,0c10.6,0,20.1,2.5,28.6,7.6
		c8.5,5.1,15,12.1,19.4,21.1c4.5,9,6.7,19.3,6.7,30.7c0,11.6-2.3,22-7,31.2c-4.7,9.2-11.3,16.1-19.9,20.8
		c-8.6,4.7-17.9,7.1-27.8,7.1c-10.8,0-20.4-2.6-28.9-7.8c-8.5-5.2-14.9-12.3-19.3-21.3C131.3,80.3,129.1,70.8,129.1,60.8z M144.7,61
		c0,13.8,3.7,24.7,11.1,32.6c7.4,7.9,16.7,11.9,27.9,11.9c11.4,0,20.8-4,28.2-12c7.4-8,11.1-19.4,11.1-34.1c0-9.3-1.6-17.5-4.7-24.4
		c-3.2-7-7.8-12.3-13.8-16.2C198.4,15,191.6,13,184,13c-10.7,0-20,3.7-27.7,11.1C148.6,31.5,144.7,43.8,144.7,61z"/>
	<path class="st0" d="M258,116.5V2h15.5l60.1,89.9V2h14.5v114.5h-15.5l-60.1-90v90H258z"/>
	<path class="st0" d="M376.3,116.5V2h15.2v114.5H376.3z"/>
	<path class="st0" d="M447.3,116.5v-101h-37.7V2h90.8v13.5h-37.9v101H447.3z"/>
</g>
</svg>
