<?xml version="1.0" encoding="utf-8"?>
<!-- Generator: Adobe Illustrator 21.1.0, SVG Export Plug-In . SVG Version: 6.00 Build 0)  -->
<svg version="1.1" id="Layer_1" xmlns="http://www.w3.org/2000/svg" xmlns:xlink="http://www.w3.org/1999/xlink" x="0px" y="0px"
	 viewBox="0 0 394.169 163.034" enable-background="new 0 0 394.169 163.034" xml:space="preserve">
<g>
	<path fill="#FFFFFF" d="M249.157,42.807c2.659-2.372,5.266-4.311,8.263-5.592c12.147-5.194,23.467-3.503,33.756,4.574
		c7.753,6.087,12.072,14.438,14.57,23.81c2.2,8.254,2.528,16.653,1.857,25.13c-0.632,7.982-2.329,15.689-6.008,22.847
		c-4.647,9.043-11.518,15.653-21.477,18.483c-9.862,2.802-19.163,1.549-27.63-4.517c-0.359-0.257-0.722-0.808-1.183-0.557
		c-0.37,0.201-0.157,0.784-0.159,1.193c-0.064,9.306-0.138,18.611-0.146,27.917c-0.001,1.082-0.326,1.417-1.374,1.632
		c-8.219,1.692-16.425,3.451-24.626,5.227c-1.164,0.252-1.439-0.072-1.438-1.24c0.028-41.454,0.028-82.909,0.002-124.363
		c-0.001-1.078,0.322-1.363,1.374-1.357c7.172,0.041,14.345,0.036,21.517,0.004c0.916-0.004,1.369,0.195,1.527,1.196
		C248.264,38.994,248.719,40.767,249.157,42.807z M280.901,83.905c0.094-1.504-0.1-2.991-0.26-4.472
		c-0.568-5.245-2.059-10.161-5.116-14.553c-6.546-9.401-18.608-7.044-23.692-1.87c-0.613,0.624-0.885,1.24-0.879,2.126
		c0.083,12.591,0.148,25.183,0.157,37.775c0.001,1.154,0.38,1.905,1.218,2.618c7.752,6.588,18.653,4.97,24.051-3.629
		C279.832,96.401,280.779,90.249,280.901,83.905z"/>
	<path fill="#FFFFFF" d="M388.524,104.697c0,7.029-0.012,13.986,0.018,20.943c0.003,0.733-0.437,0.939-0.927,1.198
		c-5.247,2.78-10.83,4.585-16.671,5.545c-8.745,1.437-17.501,1.671-26.159-0.542c-15.384-3.932-25.153-13.815-29.393-28.931
		c-3.964-14.129-3.638-28.282,1.717-42.074c3.802-9.791,9.972-17.831,19.641-22.343c13.59-6.342,27.065-6.05,39.716,2.626
		c6.421,4.404,10.464,10.787,13.321,17.938c2.782,6.965,4.097,14.243,4.337,21.708c0.126,3.923-0.048,7.854-0.031,11.782
		c0.005,1.146-0.381,1.489-1.56,1.486c-16.736-0.041-33.472-0.028-50.209-0.028c-1.975,0-1.944-0.005-1.611,1.895
		c1.591,9.057,7.541,13.339,16.031,14.273c10.652,1.172,20.907-0.559,30.652-5.1c0.232-0.108,0.469-0.204,0.707-0.298
		C388.177,104.746,388.263,104.744,388.524,104.697z M354.223,73.867c4.313,0,8.626-0.031,12.938,0.023
		c0.993,0.013,1.215-0.303,1.182-1.24c-0.089-2.497-0.506-4.923-1.394-7.251c-3.736-9.797-15.721-12.093-22.652-4.316
		c-3.019,3.387-3.964,7.553-4.184,11.955c-0.043,0.865,0.452,0.835,1.045,0.834C345.512,73.863,349.868,73.867,354.223,73.867z"/>
	<path fill="#FFFFFF" d="M64.176,64.822c-1.875-0.827-3.597-1.65-5.367-2.355c-7.159-2.854-14.573-4.493-22.307-4.484
		c-1.792,0.002-3.573,0.198-5.268,0.879c-4.006,1.609-4.766,6.309-1.444,9.073c1.898,1.58,4.147,2.515,6.43,3.367
		c5.11,1.907,10.372,3.406,15.35,5.67c4.227,1.923,8.172,4.276,11.375,7.701c3.909,4.181,5.952,9.203,6.449,14.859
		c0.711,8.093-0.945,15.538-6.289,21.895c-4.358,5.184-10.053,8.229-16.456,10.062c-7.657,2.192-15.453,2.451-23.335,1.611
		c-7.304-0.778-14.322-2.604-21.115-5.372c-0.758-0.309-1.021-0.677-1.018-1.488c0.029-7.857,0.029-15.715,0.002-23.572
		c-0.003-0.995,0.093-1.317,1.155-0.756c7.179,3.792,14.751,6.468,22.79,7.706c3.467,0.534,6.965,0.679,10.454,0.089
		c4.053-0.685,6.199-3.049,6.025-6.656c-0.104-2.16-1.383-3.628-3.017-4.817c-3.044-2.215-6.596-3.361-10.072-4.647
		c-5.158-1.907-10.378-3.664-15.17-6.43c-5.274-3.045-9.63-6.969-11.742-12.864c-3.867-10.79-1.157-26.785,12.634-34.571
		c5.333-3.011,11.076-4.602,17.141-5.112c10.741-0.903,21.187,0.441,31.332,4.121c1.044,0.379,1.517,0.807,1.503,2.056
		c-0.079,7.558-0.04,15.117-0.04,22.675C64.176,63.879,64.176,64.293,64.176,64.822z"/>
	<path fill="#FFFFFF" d="M101.612,79.36c0,5.977-0.009,11.954,0.006,17.931c0.004,1.664,0.112,3.329,0.497,4.955
		c0.961,4.057,4.112,6.721,8.295,7.245c3.777,0.474,7.391-0.177,10.947-1.322c0.928-0.299,1.158-0.163,1.153,0.82
		c-0.034,6.617-0.034,13.234,0.003,19.852c0.005,0.867-0.288,1.283-1.066,1.622c-3.599,1.571-7.394,2.332-11.261,2.725
		c-4.548,0.462-9.089,0.6-13.624-0.369c-11.619-2.484-20.235-12.032-21.431-23.821c-0.147-1.449-0.209-2.892-0.208-4.343
		c0.024-28.305,0.058-56.609,0.046-84.914c-0.001-1.211,0.308-1.655,1.529-1.904c8.056-1.642,16.095-3.366,24.13-5.11
		c0.95-0.206,1.181-0.001,1.17,0.941c-0.083,7.043-0.097,14.086-0.207,21.128c-0.018,1.142,0.287,1.419,1.412,1.408
		c6.062-0.058,12.124-0.011,18.186-0.045c0.928-0.005,1.341,0.133,1.333,1.225c-0.053,6.916-0.052,13.832-0.002,20.748
		c0.008,1.132-0.413,1.324-1.416,1.318c-5.977-0.039-11.954,0.029-17.93-0.056c-1.359-0.019-1.601,0.406-1.588,1.652
		C101.647,67.15,101.612,73.255,101.612,79.36z"/>
	<path fill="#FFFFFF" d="M156.492,44.166c1.425-2.303,2.905-4.267,4.94-5.729c5.269-3.785,11.059-4.032,17.111-2.517
		c0.569,0.143,0.709,0.489,0.708,1.029c-0.011,7.77-0.018,15.54,0.004,23.311c0.003,1.042-0.563,0.81-1.161,0.664
		c-4.173-1.021-8.29-0.825-12.332,0.627c-2.668,0.958-4.882,2.58-6.761,4.695c-0.51,0.574-0.549,1.2-0.549,1.895
		c0.007,19.639,0.005,39.278,0.005,58.917c0,1.153-0.038,2.307,0.013,3.458c0.033,0.753-0.167,1.045-0.988,1.042
		c-8.453-0.028-16.907-0.038-25.36,0.008c-1.161,0.006-1.058-0.621-1.058-1.37c0.006-13.278,0.004-26.555,0.004-39.833
		c0-17.547,0.012-35.094-0.026-52.641c-0.003-1.181,0.206-1.592,1.504-1.579c7.001,0.072,14.003,0.057,21.005,0.008
		c0.97-0.007,1.324,0.304,1.496,1.213C155.462,39.562,155.971,41.743,156.492,44.166z"/>
	<path fill="#FFFFFF" d="M213.479,83.829c0,15.411-0.011,30.822,0.023,46.232c0.003,1.13-0.23,1.521-1.455,1.513
		c-8.239-0.058-16.478-0.051-24.717-0.005c-1.102,0.006-1.441-0.242-1.439-1.401c0.034-30.907,0.031-61.814,0.007-92.721
		c-0.001-0.983,0.222-1.301,1.262-1.296c8.367,0.044,16.734,0.047,25.101-0.003c1.084-0.006,1.237,0.379,1.235,1.32
		C213.472,52.921,213.479,68.375,213.479,83.829z"/>
	<path fill="#FFFFFF" d="M213.478,10.977c0,3.328-0.014,6.656,0.011,9.983c0.005,0.676-0.094,1.067-0.883,1.234
		c-8.541,1.806-17.075,3.648-25.607,5.497c-0.878,0.19-1.098-0.123-1.095-0.972c0.027-6.698,0.023-13.396,0.003-20.095
		c-0.002-0.712,0.183-1.044,0.944-1.202c8.463-1.752,16.919-3.534,25.37-5.343c0.988-0.212,1.307-0.045,1.282,1.043
		C213.432,4.406,213.478,7.692,213.478,10.977z"/>
</g>
</svg>
