<?xml version="1.0" encoding="utf-8"?>
<!-- Generator: Adobe Illustrator 21.0.2, SVG Export Plug-In . SVG Version: 6.00 Build 0)  -->
<svg version="1.1" id="Layer_1" xmlns="http://www.w3.org/2000/svg" xmlns:xlink="http://www.w3.org/1999/xlink" x="0px" y="0px"
	 viewBox="0 0 523 157" style="enable-background:new 0 0 523 157;" xml:space="preserve">
<style type="text/css">
	.st0{fill:#FFFFFF;}
</style>
<path class="st0" d="M267.7,3.9c-0.2,0-0.4,0.2-0.3,0.4l0.6,1.2c0.7,1.5,1.6,2.9,2.5,4.2s1.9,2.6,2.8,3.9l0.7,1
	c0.2,0.3,0.5,0.7,0.7,1c0.5,0.6,1,1.3,1.5,1.9c1.1,1.2,2.2,2.4,3.4,3.5c2.2,2.3,4.6,4.4,6.9,6.6l3.4,3.3c2.3,2.3,4.7,4.4,7.1,6.4
	c1.2,1,2.5,2,3.8,2.9c1.3,0.9,2.6,1.8,4,2.6c0.4,0.3,0.8,0.5,1.2,0.7l-1-0.1c-0.2,0-0.4,0.2-0.3,0.4l0.6,1.5
	c1.3,2.9,3.3,5.3,5.4,7.5c2.2,2.1,4.6,4,7.1,5.6c2.5,1.7,5,3.1,7.6,4.5c2.3,1.3,4.6,2.4,6.9,3.6h-5.8l-3,0.1l-3.2,0.2
	c-3.8,0.5-7.6,1-11.4,1.6l1.8-7.4H296L293.4,71c-5.6,1.3-11.1,2.9-16.4,5.1l-0.2,0.1L273,60.9h-14.7l13.7,55.7h10.1l-5.7,23.3h14.8
	l14.6-59.3c1.2-0.2,2.5-0.3,3.7-0.4c1.4-0.1,3-0.1,4.5-0.1h0.1c-0.3,0.2-0.7,0.5-1,1c-0.3,0.6-0.3,1-0.3,1.6c0.8,2.7,4.7,3.8,7.1,4
	c17.2,1.6,33,1.2,47.7-7c1.7-0.9,3.3-1.9,5-2.9l0.1-0.1l0.1-0.2c0.6-0.1,1.1-0.2,1.6-0.3c0.3-0.1,0.6-0.1,0.8-0.3
	c0.2-0.1,0.4-0.3,0.4-0.5c0.3-0.6,0.3-1.1,0.3-1.3c0,0,0.1-0.1,0.1-0.2c-0.1-0.7-0.2-1.3-0.3-2c-0.2-0.7-0.4-1.3-0.7-1.9
	c-0.5-1.2-1.2-2.4-2-3.6c-2.9-4.6-6.5-8.2-10.4-12.2c-5.9-6.2-11.6-11.2-18.1-16.1c-17.4-13.4-37.7-24.3-58.7-30.6
	c-2.7-0.8-5.4-1.6-8.2-2.2c-2.8-0.6-5.7-1.1-8.5-1.3L267.7,3.9L267.7,3.9z M118.3,35v81.6h3.9V35H118.3z M4,38.5l16.7,78.2h10.7
	l16.3-71.8l16.9,71.8h10.7l16-78.2h-3.8l-15.4,74.3h-4.3L49.9,39.6h-4.4l-17.3,73.2h-4.3l-16-74.3C7.9,38.5,4,38.5,4,38.5z
	 M100.1,38.5v6.1h3.9v-6.1H100.1z M171.3,38.5v22.6c-2.8-0.4-9.5-1.3-14.7-1.3c-18.3,0-23.5,10.5-23.5,29.7
	c0,27.2,12,28.2,18.9,28.2c10.2,0,19.3-5.7,19.3-5.7v4.7h3.9V38.5H171.3z M241.3,38.5v78.2h15V38.5H241.3z M188,39.6v77h15.2V91.2
	h27V76.5h-27V54.3h33.7V39.6H188z M496.2,42.2H492c-19.2,0.2-38.9,4.6-56.9,10.5c-2.5,0.8-5.1,1.8-7.6,2.7
	c-10.3,4.6-25,11-31.4,17.9c-0.5,0.5-0.9,1.1-1.3,1.6c-0.3,0.6-0.6,1.2-0.9,1.8v0.5c-0.1,0.3-0.2,0.7-0.2,1c0.1,0.3,0.2,0.5,0.3,0.6
	c0.2,0.2,0.4,0.3,0.6,0.5c0.5,0.3,1,0.6,1.6,0.8v0.3c1.3,1.5,2.5,2.9,3.8,4.4c1.4,1.4,2.8,2.8,4.3,4.2c6.9,5.2,13.3,9.3,20.7,12.7
	c1.9,0.8,3.8,1.6,5.8,2.3c5.8,1.6,12.5,3.7,18.5,2.5c0.3-0.1,0.8-0.2,1.4-0.7c0.1-0.1,0.1-0.1,0.2-0.3c0.1,0,0.1,0,0.1-0.1h0.1v-0.1
	l0.1-0.1v-0.1l0.1-0.1c0-0.1,0-0.2,0.1-0.3c0.1-0.5,0-0.9,0-1.2c-0.2-0.6-0.4-1-0.6-1.3c-0.1,0-0.1,0-0.1-0.1c0,0.1,0.1,0.1,0.1,0.1
	c1.4,0.5,2.9,1,4.3,1.6c1.3,0.5,2.7,1.2,4,1.8c7.2,4.2,14.2,6.6,22.2,7.6c0.9,0.1,1.7,0.2,2.6,0.1c0.9,0,1.9-0.1,2.9-0.5l1.9-0.9
	c0.2,0,0.2-0.3,0.1-0.4l-1.6-1.4c-1.7-1.5-3.4-2.8-5.2-4.1c-1.7-1.2-3.5-2.4-5.3-3.5c-8.1-5.1-16.2-9.8-24.8-13.8l-2.8-1.2l-3-1.2
	l-2.9-1c-1.8-0.6-3.7-1.2-5.5-1.8c2.6-0.3,5.1-0.7,7.7-1.2c2.9-0.5,5.8-1.2,8.6-1.9c2.9-0.8,5.8-1.8,8.5-3.1c2.7-1.3,5.4-3,7.5-5.4
	l1.1-1.2c0.1-0.2,0-0.4-0.2-0.5l-1.1-0.2c0.5-0.1,1-0.2,1.5-0.3c17-6.2,29.9-10.8,42.9-20.6c1.3-1,2.6-2,3.7-3.2l1-1
	c0.1-0.2,0.1-0.4-0.1-0.5l-1.4-0.3c-2.8-0.7-5.6-1.1-8.5-1.4C504.6,42.4,500.4,42.2,496.2,42.2L496.2,42.2z M363.1,43
	c-0.1,0-0.2,0.1-0.2,0.3c0,0,0,0.1-0.1,0.3v0.9c0,0.8,0.2,1.9,0.6,3.3c0.5,1.3,1.2,2.9,2.1,4.6c3.2,5.3,7.3,9.7,11.4,14
	c0.9,1,1.9,2.1,2.8,3.1c1.1,1.2,2.2,2.4,3.3,3.6c-2.9,1.5-5.7,3-8.6,4.5c-2.7,1.4-5.3,2.8-8,4.2c-0.9,0.5-6.1,3.2-7.7,4
	c-4.6,2.4-9.1,4.6-13.6,6.9c-4,2-7.3,3.6-9.6,4.7c-1.2,0.5-2.1,1-2.7,1.3l-1,0.4c-0.3,0.2-0.1,0.7,0.2,0.5c0,0,0.4-0.1,1-0.3
	c0.7-0.2,1.7-0.5,2.9-0.9c1.2-0.4,2.7-1,4.4-1.6c1.7-0.6,3.6-1.4,5.7-2.3c2-0.9,4.3-1.8,6.6-2.9c2.4-1.1,4.8-2.2,7.4-3.4
	c0.9-0.5,1.9-1,2.9-1.4c0,0.5,0.1,1,0.2,1.5c0.3,1.5,1,2.9,1.7,4.3c0.7,1.3,1.6,2.6,2.4,3.8c0.7,1.2,1.1,2.6,1.2,4
	c0.3,13.3-1,21.9-0.5,35.2c0.1,2.9,0.4,5.9,0.9,8.9c0.2,1.4,0.5,2.9,1,4.4c0.5,1.4,1.1,2.8,2.2,4.1h0.1c0,0.1,0,0.1,0.1,0.1h0.1
	l0.1,0.1h0.2l0.1-0.1c1.5-0.6,2.6-1.8,3.5-3c1-1.2,1.8-2.4,2.5-3.8c1.4-2.6,2.5-5.3,3.6-8.1c4.1-11,7.4-24.3,10.5-33.6
	c0.7-1.2,1.5-2.3,2.6-3.1c1.1-0.8,2.3-1.5,3.5-2.4c1.2-0.8,2.3-1.8,3.2-2.9c0.4-0.4,0.7-0.9,0.9-1.5c0.4,0.3,0.7,0.7,1,1
	c2,2,4,3.9,5.9,5.6c1.8,1.8,3.6,3.4,5.3,4.9v0.1c1.7,1.4,3.2,2.8,4.6,3.9c1.4,1.2,2.6,2.2,3.6,3c1.1,0.8,1.9,1.4,2.5,1.8
	c0.5,0.4,0.8,0.7,0.8,0.7c0.3,0.2,0.7-0.2,0.4-0.5c0,0-0.3-0.2-0.8-0.7l-2.1-2.1c-7.9-7.8-16.8-17.1-24.2-24.9
	c-2-2.2-4.1-4.3-6.1-6.6c-2.2-2.3-4.4-4.7-6.6-7.1c1.4-0.8,2.8-1.6,4.2-2.3c1.3-0.7,2.5-1.4,3.7-2c5.3-2.8,10.8-5.8,15.3-9.6
	c1.5-1.3,2.7-2.5,3.5-3.6c0.9-1.1,1.4-2.2,1.6-2.9c0.2-0.4,0.3-0.7,0.3-0.8c0.1-0.2,0.1-0.3,0.1-0.3c0.1-0.3-0.4-0.5-0.5-0.2
	l-0.1,0.3c-0.1,0.2-0.2,0.5-0.3,0.8H415c-0.2,0.7-0.8,1.6-1.7,2.6c-0.8,1-2,2.1-3.5,3.2c-5,3.8-10.5,5.7-15.8,8.3
	c-1.2,0.6-2.5,1.3-3.7,1.9c-1.6,0.8-3.3,1.7-4.9,2.6c-1.3-1.4-2.5-2.7-3.8-4c-1-1-2-2.1-2.9-3.1c-4.2-4.2-8.8-8.1-12.1-13
	c-1.1-1.5-1.9-3-2.4-4.2s-0.7-2.3-0.7-3c-0.1-0.3-0.1-0.6-0.1-0.8v-0.3C363.4,43.1,363.3,43,363.1,43L363.1,43z M100.1,60.8v55.8
	h3.9V60.8H100.1z M156.6,63.3c4.4,0,11.8,1,14.7,1.4v43.5c0,0-9.7,5.9-19.3,5.9c-6.3,0-14.9-2.1-14.9-24.3
	C137.1,72.8,140.7,63.3,156.6,63.3z M277.7,79.6c0.4,0.3,0.9,0.5,1.4,0.7c3.8,1.3,7.7,1.7,11.6,1.8l-4.9,20h-2.6L277.7,79.6
	L277.7,79.6z"/>
</svg>
