<?xml version="1.0" encoding="utf-8"?>
<!-- Generator: Adobe Illustrator 22.0.1, SVG Export Plug-In . SVG Version: 6.00 Build 0)  -->
<svg version="1.1" id="Layer_1" xmlns="http://www.w3.org/2000/svg" xmlns:xlink="http://www.w3.org/1999/xlink" x="0px" y="0px"
	 viewBox="0 0 1240.094 258.404" enable-background="new 0 0 1240.094 258.404" xml:space="preserve">
<g>
	<g>
		<defs>
			<rect id="SVGID_1_" y="0" width="223.173" height="223.173"/>
		</defs>
		<clipPath id="SVGID_2_">
			<use xlink:href="#SVGID_1_"  overflow="visible"/>
		</clipPath>
		<g clip-path="url(#SVGID_2_)">
			<defs>
				<path id="SVGID_3_" d="M55.928,111.586c0-30.814,24.98-55.793,55.793-55.793c30.814,0,55.793,24.979,55.793,55.793
					c0,30.814-24.979,55.793-55.793,55.793C80.907,167.379,55.928,142.4,55.928,111.586 M111.721,0
					c0,55.793-111.586,49.959-111.586,111.586c0,1.206,0.026,2.406,0.064,3.603C2.102,175.149,51.3,223.173,111.721,223.173
					c0-54.666,107.123-50.17,111.452-107.934v-9.185C220.29,46.996,171.494,0,111.721,0z"/>
			</defs>
			<clipPath id="SVGID_4_">
				<use xlink:href="#SVGID_3_"  overflow="visible"/>
			</clipPath>
			
				<linearGradient id="SVGID_5_" gradientUnits="userSpaceOnUse" x1="15.0176" y1="-20.519" x2="15.2354" y2="-20.519" gradientTransform="matrix(-1024 0 0 1024 15601.1836 21123.0703)">
				<stop  offset="0" style="stop-color:#174888"/>
				<stop  offset="1" style="stop-color:#00AABF"/>
			</linearGradient>
			<rect x="0.135" y="0" clip-path="url(#SVGID_4_)" fill="url(#SVGID_5_)" width="223.038" height="223.173"/>
		</g>
		<g clip-path="url(#SVGID_2_)">
			<defs>
				<path id="SVGID_6_" d="M111.721,0c0,55.793-111.586,49.959-111.586,111.586c0,1.206,0.026,2.406,0.064,3.603
					c1.901,29.002,51.052,52.19,111.522,52.19c-30.813,0-55.793-24.98-55.793-55.793c0-30.814,24.98-55.793,55.793-55.793
					c59.822,0,108.572,23.473,111.452,53.024v-2.763C220.29,46.996,171.494,0,111.721,0z"/>
			</defs>
			<clipPath id="SVGID_7_">
				<use xlink:href="#SVGID_6_"  overflow="visible"/>
			</clipPath>
			
				<linearGradient id="SVGID_8_" gradientUnits="userSpaceOnUse" x1="13.6364" y1="-21.1048" x2="13.8543" y2="-21.1048" gradientTransform="matrix(426.7072 -739.0786 -739.0786 -426.7072 -21354.457 1241.7672)">
				<stop  offset="0" style="stop-color:#00BEC7"/>
				<stop  offset="0.2737" style="stop-color:#00B5CA"/>
				<stop  offset="0.7145" style="stop-color:#009ED4"/>
				<stop  offset="0.9944" style="stop-color:#008BDB"/>
				<stop  offset="1" style="stop-color:#008BDB"/>
			</linearGradient>
			<polygon clip-path="url(#SVGID_7_)" fill="url(#SVGID_8_)" points="-72.343,125.535 55.894,-96.578 295.65,41.845 
				167.413,263.958 			"/>
		</g>
		<g clip-path="url(#SVGID_2_)">
			<defs>
				<path id="SVGID_9_" d="M167.514,111.586c0,30.814-24.979,55.793-55.793,55.793c-60.47,0-109.621-23.188-111.522-52.19
					C2.102,175.149,51.3,223.173,111.721,223.173c0-54.666,107.123-50.17,111.452-107.934v-6.422
					c-2.88-29.551-51.63-53.024-111.452-53.024C142.535,55.793,167.514,80.773,167.514,111.586"/>
			</defs>
			<clipPath id="SVGID_10_">
				<use xlink:href="#SVGID_9_"  overflow="visible"/>
			</clipPath>
			
				<linearGradient id="SVGID_11_" gradientUnits="userSpaceOnUse" x1="15.2739" y1="-21.7649" x2="15.4919" y2="-21.7649" gradientTransform="matrix(66.6809 762.1662 762.1662 -66.6809 15674.4053 -13036.1475)">
				<stop  offset="0" style="stop-color:#174888"/>
				<stop  offset="1" style="stop-color:#00AABF"/>
			</linearGradient>
			<polygon clip-path="url(#SVGID_10_)" fill="url(#SVGID_11_)" points="221.479,36.434 237.705,221.901 1.892,242.532 
				-14.334,57.065 			"/>
		</g>
	</g>
</g>
<g>
	<path fill="#00A6CF" d="M411.868,200.749c0,1.579-0.526,2.81-1.58,3.686c-1.053,0.88-2.369,1.316-3.948,1.316
		c-1.23,0-2.328-0.305-3.291-0.922c-0.967-0.612-1.625-1.447-1.975-2.501l-22.114-54.232l0.263,0.526h-88.194l-21.325,53.706
		c-0.88,2.283-2.46,3.423-4.738,3.423c-1.58,0-2.855-0.437-3.817-1.316c-0.967-0.876-1.539-1.929-1.711-3.159
		c-0.177-0.699-0.09-1.579,0.263-2.633l70.819-174.283c0.526-1.403,1.185-2.324,1.975-2.764c0.789-0.436,1.797-0.658,3.027-0.658
		c2.633,0,4.385,1.144,5.266,3.422l70.818,174.283C411.777,199.169,411.868,199.873,411.868,200.749z M295.24,138.091h79.771
		l-40.28-99.251L295.24,138.091z"/>
	<path fill="#00A6CF" d="M535.336,81.488c9.301,5.792,16.586,13.781,21.852,23.958c5.266,10.181,7.898,21.678,7.898,34.488
		c0,12.638-2.678,24.09-8.03,34.356c-5.355,10.268-12.682,18.343-21.982,24.221c-9.305,5.883-19.659,8.82-31.065,8.82
		c-10.531,0-20.186-2.633-28.96-7.898c-8.778-5.266-15.973-12.724-21.588-22.378v76.085c0,1.402-0.485,2.632-1.448,3.686
		c-0.966,1.053-2.237,1.579-3.817,1.579c-1.406,0-2.632-0.526-3.686-1.579c-1.053-1.054-1.579-2.283-1.579-3.686V78.066
		c0-1.403,0.481-2.632,1.447-3.686c0.963-1.053,2.238-1.58,3.817-1.58c1.58,0,2.852,0.526,3.817,1.58
		c0.963,1.053,1.448,2.283,1.448,3.686v24.221c5.266-10.004,12.283-17.417,21.062-22.246c8.774-4.825,18.602-7.24,29.486-7.24
		C515.591,72.801,526.032,75.697,535.336,81.488z M529.545,189.955c7.721-4.912,13.821-11.757,18.297-20.535
		c4.476-8.774,6.713-18.602,6.713-29.486c0-10.88-2.237-20.666-6.713-29.354c-4.476-8.688-10.576-15.487-18.297-20.403
		c-7.726-4.912-16.413-7.372-26.064-7.372c-9.832,0-18.651,2.415-26.459,7.24c-7.812,4.829-13.867,11.583-18.165,20.271
		c-4.303,8.688-6.45,18.561-6.45,29.617c0,11.058,2.147,20.931,6.45,29.618c4.298,8.688,10.354,15.491,18.165,20.403
		c7.808,4.916,16.627,7.371,26.459,7.371C513.132,197.326,521.82,194.871,529.545,189.955z"/>
	<path fill="#00A6CF" d="M651.96,74.907c1.054,1.053,1.58,2.197,1.58,3.422c0,1.407-0.485,2.592-1.448,3.554
		c-0.967,0.967-2.151,1.448-3.554,1.448h-28.96v93.723c0,7.726,1.357,12.859,4.081,15.401c2.719,2.546,6.187,3.817,10.398,3.817
		c0.7,0,1.712-0.173,3.028-0.526c1.316-0.35,2.41-0.526,3.291-0.526c1.226,0,2.278,0.485,3.159,1.447
		c0.876,0.967,1.316,2.065,1.316,3.291c0,1.58-1.054,2.941-3.16,4.081c-2.105,1.144-4.565,1.711-7.371,1.711
		c-4.389,0-8.075-0.305-11.058-0.922c-2.986-0.612-6.1-2.981-9.346-7.107c-3.25-4.122-4.87-10.836-4.87-20.141v-94.25H587.46
		c-1.23,0-2.37-0.527-3.423-1.58c-1.053-1.053-1.579-2.193-1.579-3.423c0-1.402,0.48-2.587,1.447-3.554
		c0.963-0.963,2.147-1.448,3.555-1.448h21.588V39.892c0-1.403,0.526-2.632,1.579-3.686c1.054-1.053,2.279-1.58,3.686-1.58
		c1.58,0,2.852,0.526,3.818,1.58c0.962,1.053,1.447,2.283,1.447,3.686v33.435h28.96C649.764,73.327,650.908,73.853,651.96,74.907z"
		/>
	<path fill="#00A6CF" d="M681.314,49.896c-1.67-1.58-2.501-3.595-2.501-6.055v-2.106c0-2.456,0.876-4.475,2.633-6.055
		c1.752-1.58,4.035-2.369,6.845-2.369c2.456,0,4.517,0.79,6.187,2.369c1.666,1.58,2.501,3.6,2.501,6.055v2.106
		c0,2.46-0.835,4.476-2.501,6.055c-1.67,1.58-3.817,2.369-6.45,2.369C685.217,52.265,682.98,51.476,681.314,49.896z
		 M691.713,204.171c-1.054,1.054-2.283,1.58-3.687,1.58c-1.579,0-2.854-0.526-3.817-1.58c-0.966-1.053-1.447-2.278-1.447-3.686
		V75.433c0-1.403,0.526-2.633,1.579-3.686c1.054-1.053,2.279-1.58,3.686-1.58c1.58,0,2.852,0.526,3.817,1.58
		c0.963,1.053,1.448,2.283,1.448,3.686v125.052C693.292,201.892,692.766,203.118,691.713,204.171z"/>
	<path fill="#00A6CF" d="M853.358,22.911c1.054,0.966,1.58,2.151,1.58,3.554c0,1.58-0.485,2.81-1.448,3.686
		c-0.967,0.88-2.237,1.316-3.817,1.316h-58.709v169.018c0,1.407-0.526,2.633-1.579,3.686c-1.053,1.054-2.283,1.58-3.686,1.58
		c-1.58,0-2.855-0.526-3.817-1.58c-0.967-1.053-1.448-2.278-1.448-3.686V31.468h-58.709c-1.406,0-2.633-0.481-3.686-1.448
		c-1.053-0.962-1.579-2.147-1.579-3.554c0-1.402,0.526-2.587,1.579-3.554c1.053-0.963,2.279-1.448,3.686-1.448h127.948
		C851.076,21.463,852.305,21.949,853.358,22.911z"/>
	<path fill="#00A6CF" d="M961.56,175.606c0.877,0.967,1.316,2.065,1.316,3.291c0,1.23-0.354,2.283-1.053,3.159
		c-5.792,7.726-12.991,14.044-21.588,18.955c-8.602,4.912-17.816,7.372-27.644,7.372c-13.163,0-24.838-2.806-35.015-8.425
		c-10.181-5.615-18.124-13.6-23.825-23.957c-5.706-10.354-8.557-22.378-8.557-36.068c0-14.039,2.765-26.367,8.293-36.989
		c5.528-10.617,12.855-18.733,21.983-24.352c9.123-5.615,18.864-8.425,29.223-8.425c10.354,0,19.963,2.238,28.827,6.713
		c8.861,4.476,16.101,11.189,21.72,20.14c5.615,8.951,8.598,20.008,8.951,33.172c0,1.406-0.526,2.678-1.579,3.817
		c-1.054,1.144-2.283,1.711-3.687,1.711H855.463v3.423c0,10.884,2.192,20.843,6.582,29.881c4.385,9.041,10.88,16.19,19.481,21.456
		c8.598,5.266,18.955,7.898,31.065,7.898c8.425,0,16.364-2.062,23.826-6.188c7.458-4.121,13.295-9.346,17.507-15.664
		c1.227-1.58,2.72-2.369,4.476-2.369C959.627,174.159,960.68,174.644,961.56,175.606z M884.818,85.832
		c-6.759,3.422-12.728,8.515-17.902,15.27c-5.179,6.758-8.646,14.965-10.399,24.616h96.883v-2.37
		c-0.88-8.95-3.73-16.626-8.556-23.036c-4.83-6.405-10.794-11.275-17.902-14.611c-7.108-3.332-14.525-5.002-22.246-5.002
		C898.199,80.699,891.572,82.41,884.818,85.832z"/>
	<path fill="#00A6CF" d="M1103.458,200.485c0,1.58-0.658,2.855-1.975,3.817c-1.316,0.967-2.414,1.448-3.291,1.448
		c-1.406,0-2.723-0.613-3.948-1.843l-61.605-65.554l-22.114,18.429v43.702c0,1.407-0.485,2.633-1.448,3.686
		c-0.967,1.054-2.237,1.58-3.817,1.58c-1.579,0-2.854-0.526-3.817-1.58c-0.967-1.053-1.447-2.278-1.447-3.686V16.198
		c0-1.403,0.48-2.633,1.447-3.686c0.963-1.053,2.238-1.58,3.817-1.58c1.58,0,2.851,0.527,3.817,1.58
		c0.963,1.053,1.448,2.283,1.448,3.686V143.62l82.666-69.24c1.054-1.053,2.192-1.58,3.423-1.58c1.402,0,2.633,0.526,3.686,1.58
		s1.58,2.369,1.58,3.949s-0.617,2.896-1.844,3.949L1040.8,131.51l61.079,65.026C1102.932,197.59,1103.458,198.906,1103.458,200.485z
		"/>
	<path fill="#00A6CF" d="M1240.094,200.485c0,1.58-0.658,2.855-1.975,3.817c-1.316,0.967-2.414,1.448-3.291,1.448
		c-1.406,0-2.723-0.613-3.948-1.843l-61.605-65.554l-22.114,18.429v43.702c0,1.407-0.485,2.633-1.448,3.686
		c-0.967,1.054-2.237,1.58-3.817,1.58c-1.579,0-2.854-0.526-3.817-1.58c-0.967-1.053-1.447-2.278-1.447-3.686V16.198
		c0-1.403,0.48-2.633,1.447-3.686c0.963-1.053,2.238-1.58,3.817-1.58c1.58,0,2.851,0.527,3.817,1.58
		c0.963,1.053,1.448,2.283,1.448,3.686V143.62l82.666-69.24c1.054-1.053,2.192-1.58,3.423-1.58c1.402,0,2.633,0.526,3.686,1.58
		s1.58,2.369,1.58,3.949s-0.617,2.896-1.844,3.949l-59.235,49.231l61.079,65.026C1239.568,197.59,1240.094,198.906,1240.094,200.485
		z"/>
</g>
<g display="none">
	<path display="inline" fill="#4272B7" d="M411.868,200.749c0,1.579-0.526,2.81-1.58,3.686c-1.053,0.88-2.369,1.316-3.948,1.316
		c-1.23,0-2.328-0.305-3.291-0.922c-0.967-0.612-1.625-1.447-1.975-2.501l-22.114-54.232l0.263,0.526h-88.194l-21.325,53.706
		c-0.88,2.283-2.46,3.423-4.738,3.423c-1.58,0-2.855-0.437-3.817-1.316c-0.967-0.876-1.539-1.929-1.711-3.159
		c-0.177-0.699-0.09-1.579,0.263-2.633l70.819-174.283c0.526-1.403,1.185-2.324,1.975-2.764c0.789-0.436,1.797-0.658,3.027-0.658
		c2.633,0,4.385,1.144,5.266,3.422l70.818,174.283C411.777,199.169,411.868,199.873,411.868,200.749z M295.24,138.091h79.771
		l-40.28-99.251L295.24,138.091z"/>
	<path display="inline" fill="#4272B7" d="M535.336,81.488c9.301,5.792,16.586,13.781,21.852,23.958
		c5.266,10.181,7.898,21.678,7.898,34.488c0,12.638-2.678,24.09-8.03,34.356c-5.355,10.268-12.682,18.343-21.982,24.221
		c-9.305,5.883-19.659,8.82-31.065,8.82c-10.531,0-20.186-2.633-28.96-7.898c-8.778-5.266-15.973-12.724-21.588-22.378v76.085
		c0,1.402-0.485,2.632-1.448,3.686c-0.966,1.053-2.237,1.579-3.817,1.579c-1.406,0-2.632-0.526-3.686-1.579
		c-1.053-1.054-1.579-2.283-1.579-3.686V78.066c0-1.403,0.481-2.632,1.447-3.686c0.963-1.053,2.238-1.58,3.817-1.58
		c1.58,0,2.852,0.526,3.817,1.58c0.963,1.053,1.448,2.283,1.448,3.686v24.221c5.266-10.004,12.283-17.417,21.062-22.246
		c8.774-4.825,18.602-7.24,29.486-7.24C515.591,72.801,526.032,75.697,535.336,81.488z M529.545,189.955
		c7.721-4.912,13.821-11.757,18.297-20.535c4.476-8.774,6.713-18.602,6.713-29.486c0-10.88-2.237-20.666-6.713-29.354
		c-4.476-8.688-10.576-15.487-18.297-20.403c-7.726-4.912-16.413-7.372-26.064-7.372c-9.832,0-18.651,2.415-26.459,7.24
		c-7.812,4.829-13.867,11.583-18.165,20.271c-4.303,8.688-6.45,18.561-6.45,29.617c0,11.058,2.147,20.931,6.45,29.618
		c4.298,8.688,10.354,15.491,18.165,20.403c7.808,4.916,16.627,7.371,26.459,7.371C513.132,197.326,521.82,194.871,529.545,189.955z
		"/>
	<path display="inline" fill="#4272B7" d="M651.96,74.907c1.054,1.053,1.58,2.197,1.58,3.422c0,1.407-0.485,2.592-1.448,3.554
		c-0.967,0.967-2.151,1.448-3.554,1.448h-28.96v93.723c0,7.726,1.357,12.859,4.081,15.401c2.719,2.546,6.187,3.817,10.398,3.817
		c0.7,0,1.712-0.173,3.028-0.526c1.316-0.35,2.41-0.526,3.291-0.526c1.226,0,2.278,0.485,3.159,1.447
		c0.876,0.967,1.316,2.065,1.316,3.291c0,1.58-1.054,2.941-3.16,4.081c-2.105,1.144-4.565,1.711-7.371,1.711
		c-4.389,0-8.075-0.305-11.058-0.922c-2.986-0.612-6.1-2.981-9.346-7.107c-3.25-4.122-4.87-10.836-4.87-20.141v-94.25H587.46
		c-1.23,0-2.37-0.527-3.423-1.58c-1.053-1.053-1.579-2.193-1.579-3.423c0-1.402,0.48-2.587,1.447-3.554
		c0.963-0.963,2.147-1.448,3.555-1.448h21.588V39.892c0-1.403,0.526-2.632,1.579-3.686c1.054-1.053,2.279-1.58,3.686-1.58
		c1.58,0,2.852,0.526,3.818,1.58c0.962,1.053,1.447,2.283,1.447,3.686v33.435h28.96C649.764,73.327,650.908,73.853,651.96,74.907z"
		/>
	<path display="inline" fill="#4272B7" d="M681.314,49.896c-1.67-1.58-2.501-3.595-2.501-6.055v-2.106
		c0-2.456,0.876-4.475,2.633-6.055c1.752-1.58,4.035-2.369,6.845-2.369c2.456,0,4.517,0.79,6.187,2.369
		c1.666,1.58,2.501,3.6,2.501,6.055v2.106c0,2.46-0.835,4.476-2.501,6.055c-1.67,1.58-3.817,2.369-6.45,2.369
		C685.217,52.265,682.98,51.476,681.314,49.896z M691.713,204.171c-1.054,1.054-2.283,1.58-3.687,1.58
		c-1.579,0-2.854-0.526-3.817-1.58c-0.966-1.053-1.447-2.278-1.447-3.686V75.433c0-1.403,0.526-2.633,1.579-3.686
		c1.054-1.053,2.279-1.58,3.686-1.58c1.58,0,2.852,0.526,3.817,1.58c0.963,1.053,1.448,2.283,1.448,3.686v125.052
		C693.292,201.892,692.766,203.118,691.713,204.171z"/>
	<path display="inline" fill="#4272B7" d="M853.358,22.911c1.054,0.966,1.58,2.151,1.58,3.554c0,1.58-0.485,2.81-1.448,3.686
		c-0.967,0.88-2.237,1.316-3.817,1.316h-58.709v169.018c0,1.407-0.526,2.633-1.579,3.686c-1.053,1.054-2.283,1.58-3.686,1.58
		c-1.58,0-2.855-0.526-3.817-1.58c-0.967-1.053-1.448-2.278-1.448-3.686V31.468h-58.709c-1.406,0-2.633-0.481-3.686-1.448
		c-1.053-0.962-1.579-2.147-1.579-3.554c0-1.402,0.526-2.587,1.579-3.554c1.053-0.963,2.279-1.448,3.686-1.448h127.948
		C851.076,21.463,852.305,21.949,853.358,22.911z"/>
	<path display="inline" fill="#4272B7" d="M961.561,175.606c0.877,0.967,1.316,2.065,1.316,3.291c0,1.23-0.354,2.283-1.053,3.159
		c-5.792,7.726-12.991,14.044-21.588,18.955c-8.602,4.912-17.816,7.372-27.644,7.372c-13.163,0-24.838-2.806-35.015-8.425
		c-10.181-5.615-18.124-13.6-23.825-23.957c-5.706-10.354-8.557-22.378-8.557-36.068c0-14.039,2.765-26.367,8.293-36.989
		c5.528-10.617,12.855-18.733,21.983-24.352c9.123-5.615,18.864-8.425,29.223-8.425c10.354,0,19.963,2.238,28.827,6.713
		c8.861,4.476,16.101,11.189,21.72,20.14c5.615,8.951,8.598,20.008,8.951,33.172c0,1.406-0.526,2.678-1.579,3.817
		c-1.054,1.144-2.283,1.711-3.687,1.711H855.464v3.423c0,10.884,2.192,20.843,6.582,29.881c4.385,9.041,10.88,16.19,19.481,21.456
		c8.598,5.266,18.955,7.898,31.065,7.898c8.425,0,16.364-2.062,23.826-6.188c7.458-4.121,13.295-9.346,17.507-15.664
		c1.227-1.58,2.72-2.369,4.476-2.369C959.628,174.159,960.681,174.644,961.561,175.606z M884.819,85.832
		c-6.759,3.422-12.728,8.515-17.902,15.27c-5.179,6.758-8.646,14.965-10.399,24.616H953.4v-2.37
		c-0.88-8.95-3.73-16.626-8.556-23.036c-4.83-6.405-10.794-11.275-17.902-14.611c-7.108-3.332-14.525-5.002-22.246-5.002
		C898.2,80.699,891.573,82.41,884.819,85.832z"/>
	<path display="inline" fill="#4272B7" d="M1103.459,200.485c0,1.58-0.658,2.855-1.975,3.817c-1.316,0.967-2.414,1.448-3.291,1.448
		c-1.406,0-2.723-0.613-3.948-1.843l-61.605-65.554l-22.114,18.429v43.702c0,1.407-0.485,2.633-1.448,3.686
		c-0.967,1.054-2.237,1.58-3.817,1.58c-1.579,0-2.854-0.526-3.817-1.58c-0.967-1.053-1.447-2.278-1.447-3.686V16.198
		c0-1.403,0.48-2.633,1.447-3.686c0.963-1.053,2.238-1.58,3.817-1.58c1.58,0,2.851,0.527,3.817,1.58
		c0.963,1.053,1.448,2.283,1.448,3.686V143.62l82.666-69.24c1.054-1.053,2.192-1.58,3.423-1.58c1.402,0,2.633,0.526,3.686,1.58
		s1.58,2.369,1.58,3.949s-0.617,2.896-1.844,3.949l-59.235,49.231l61.079,65.026C1102.933,197.59,1103.459,198.906,1103.459,200.485
		z"/>
	<path display="inline" fill="#4272B7" d="M1240.095,200.485c0,1.58-0.658,2.855-1.975,3.817c-1.316,0.967-2.414,1.448-3.291,1.448
		c-1.406,0-2.723-0.613-3.948-1.843l-61.605-65.554l-22.114,18.429v43.702c0,1.407-0.485,2.633-1.448,3.686
		c-0.967,1.054-2.237,1.58-3.817,1.58c-1.579,0-2.854-0.526-3.817-1.58c-0.967-1.053-1.447-2.278-1.447-3.686V16.198
		c0-1.403,0.48-2.633,1.447-3.686c0.963-1.053,2.238-1.58,3.817-1.58c1.58,0,2.851,0.527,3.817,1.58
		c0.963,1.053,1.448,2.283,1.448,3.686V143.62l82.666-69.24c1.054-1.053,2.192-1.58,3.423-1.58c1.402,0,2.633,0.526,3.686,1.58
		s1.58,2.369,1.58,3.949s-0.617,2.896-1.844,3.949l-59.235,49.231l61.079,65.026C1239.569,197.59,1240.095,198.906,1240.095,200.485
		z"/>
</g>
<g>
</g>
<g>
</g>
<g>
</g>
<g>
</g>
<g>
</g>
<g>
</g>
<g>
</g>
<g>
</g>
<g>
</g>
<g>
</g>
<g>
</g>
<g>
</g>
<g>
</g>
<g>
</g>
<g>
</g>
</svg>
