<?xml version="1.0" encoding="utf-8"?>
<!-- Generator: Adobe Illustrator 21.1.0, SVG Export Plug-In . SVG Version: 6.00 Build 0)  -->
<svg version="1.1" id="Layer_1" xmlns="http://www.w3.org/2000/svg" xmlns:xlink="http://www.w3.org/1999/xlink" x="0px" y="0px"
	 viewBox="0 0 759.48 151.358" enable-background="new 0 0 759.48 151.358" xml:space="preserve">
<g>
	<path fill="#FFFFFF" d="M374.032,52.619c8.76-2.436,16.794-5.093,25.024-6.796c4.804-0.994,9.972-0.943,14.882-0.44
		c2.945,0.302,6.616,1.65,8.36,3.817c3.546,4.404,6.621,3.092,11.025,1.732c8.351-2.579,16.978-5.052,25.629-5.696
		c14.915-1.111,22.837,5.882,23.282,20.786c0.67,22.465,0.197,44.963,0.283,67.446c0.012,3.198-1.761,3.999-4.424,4.007
		c-4.83,0.015-9.666-0.139-14.488,0.066c-4.181,0.177-5.516-1.693-5.489-5.68c0.118-17.154,0.048-34.309,0.047-51.464
		c-0.001-12.284-1.89-13.732-13.771-10.561c-13.98,3.732-13.98,3.732-13.98,18.276c0,14.49-0.116,28.981,0.07,43.469
		c0.056,4.324-1.504,6.112-5.799,5.952c-4.491-0.168-8.998-0.18-13.488,0.004c-4.117,0.169-5.478-1.529-5.44-5.631
		c0.169-18.319,0.083-36.641,0.067-54.961c-0.007-7.521-1.937-9.528-9.319-7.983c-5.632,1.178-11.116,3.361-16.402,5.694
		c-1.33,0.587-2.313,3.456-2.331,5.287c-0.175,17.153-0.238,34.31-0.018,51.462c0.058,4.541-1.339,6.439-5.956,6.146
		c-3.981-0.252-7.991-0.026-11.988-0.057c-6.009-0.048-6.615-0.603-6.631-6.543c-0.038-13.824-0.013-27.648-0.013-41.471
		c0-11.992-0.019-23.983,0.008-35.975c0.015-6.536,0.486-6.963,7.183-7c1.665-0.009,3.35,0.159,4.993-0.032
		C370.127,45.916,373.608,47.134,374.032,52.619z"/>
	<path fill="#FFFFFF" d="M239.912,72.371c1.326,0.955,2.051,1.601,2.881,2.057c6.442,3.54,10.579,9.037,11.172,16.2
		c0.656,7.919,0.976,16.066-0.146,23.885c-1.816,12.653-10.818,21.253-24.185,22.023c-19.1,1.101-38.287,0.767-57.437,0.744
		c-1.331-0.002-2.89-2.348-3.897-3.895c-0.538-0.825-0.134-2.272-0.134-3.438c-0.002-36.162-0.005-72.325,0.001-108.487
		c0.001-7.291,0.017-7.294,7.522-7.295c14.665-0.002,29.33-0.074,43.994,0.052c3.637,0.031,7.33,0.408,10.89,1.145
		c11.133,2.306,17.718,8.809,19.186,20.121c0.914,7.043,0.708,14.296,0.353,21.422C249.777,63.609,246.267,68.846,239.912,72.371z
		 M193.663,116.146c8.917,0,17.24,0.233,25.543-0.071c7.098-0.259,9.789-3.344,9.94-10.387c0.068-3.163,0.073-6.329-0.002-9.492
		c-0.175-7.417-2.913-10.286-10.196-10.649c-2.659-0.133-5.328-0.053-7.992-0.08c-2.801-0.028-4.288-1.18-4.162-4.253
		c0.163-3.99,0.157-7.996,0-11.987c-0.116-2.937,0.914-4.354,3.984-4.249c1.815,0.062,3.663-0.104,5.46-0.391
		c6.636-1.059,8.605-3.331,8.666-9.902c0.037-3.996,0.012-7.993-0.007-11.99c-0.017-3.681-1.961-6.547-5.408-6.719
		c-8.537-0.427-17.11-0.14-25.826-0.14C193.663,62.46,193.663,89.042,193.663,116.146z"/>
	<path fill="#FFFFFF" d="M525.006,48.011c8.985-1.054,17.32-2.652,25.692-2.877c15.261-0.409,25.026,7.034,26.205,22.121
		c1.237,15.834,0.617,31.917-0.508,47.799c-0.825,11.657-8.751,18.642-19.844,21.731c-12.918,3.598-26.092,2.265-39.199,1.578
		c-4.137-0.217-8.233-1.144-12.369-1.512c-3.049-0.271-4.362-1.54-4.357-4.724c0.065-38.63,0.069-77.261-0.003-115.891
		c-0.006-3.326,1.339-4.368,4.474-4.271c4.99,0.155,9.995,0.186,14.983-0.009c3.493-0.137,4.68,1.251,4.628,4.678
		c-0.146,9.489-0.057,18.981-0.023,28.472C524.691,46.241,524.933,47.375,525.006,48.011z M524.673,93.537
		c0,6.649,0.097,13.301-0.045,19.947c-0.062,2.904,0.999,4.459,3.925,4.45c4.643-0.013,9.356,0.361,13.914-0.294
		c7.723-1.11,10.546-4.618,10.654-12.495c0.138-9.972,0.115-19.948,0.005-29.921c-0.071-6.425-3.124-9.687-9.633-9.228
		c-5.055,0.356-10.031,1.982-15.015,3.158c-2.782,0.656-3.97,2.401-3.872,5.436C524.813,80.899,524.669,87.221,524.673,93.537z"/>
	<path fill="#FFFFFF" d="M759.297,92.154c0,5.498,0.465,11.043-0.086,16.485c-1.729,17.056-10.901,27.188-28.538,29.587
		c-8.727,1.187-18.084,0.699-26.724-1.102c-13.553-2.825-21.93-12.1-23.071-26.081c-0.972-11.902-1.45-24.029-0.295-35.876
		c1.731-17.772,10.895-27.139,28.498-29.429c8.579-1.116,17.737-0.639,26.233,1.089c14.926,3.036,23.38,14.51,24.06,30.331
		c0.215,4.99,0.033,9.997,0.033,14.997C759.37,92.154,759.333,92.154,759.297,92.154z M734.909,91.995
		c0-4.162,0.056-8.324-0.011-12.485c-0.151-9.35-4.967-13.665-15.168-13.67c-10.103-0.005-15.074,4.404-15.209,13.69
		c-0.106,7.323-0.026,14.649-0.024,21.974c0.005,13.635,7.307,19.288,20.683,16.016c6.526-1.596,9.497-5.193,9.69-12.042
		C734.997,100.987,734.894,96.489,734.909,91.995z"/>
	<path fill="#FFFFFF" d="M590.093,91.723c0-6.161-0.706-12.421,0.137-18.465c2.223-15.947,11.293-25.179,28.369-27.481
		c8.574-1.156,17.751-0.752,26.237,0.989c15.069,3.093,22.846,13.389,24.041,30.797c0.705,10.265,0.573,20.684-0.3,30.938
		c-1.494,17.535-11.06,27.725-28.658,29.846c-8.45,1.018-17.405,0.601-25.769-1.027c-14.893-2.899-23.919-14.87-24.292-30.1
		c-0.126-5.163-0.02-10.331-0.02-15.497C589.923,91.723,590.008,91.723,590.093,91.723z M644.661,92.036
		c0-3.163-0.169-6.337,0.029-9.488c0.89-14.127-7.608-18.301-20.234-16.141c-6.872,1.176-9.827,4.6-10.06,11.604
		c-0.303,9.144-0.367,18.314-0.056,27.456c0.306,9.007,5.268,12.827,15.506,12.695c9.58-0.123,14.428-4.363,14.773-13.14
		C644.789,100.699,644.649,96.364,644.661,92.036z"/>
	<path fill="#FFFFFF" d="M314.75,134.201c-8.579,1.667-16.573,3.895-24.704,4.656c-15.29,1.432-23.713-8.24-25.079-23.417
		c-0.223-2.479-0.163-5.001-0.024-7.491c0.768-13.724,7.913-21.135,21.641-21.831c8.123-0.411,16.285-0.075,24.904-0.075
		c0-5.213,0.495-9.679-0.137-13.98c-0.652-4.433-4.473-6.27-8.546-6.189c-8.792,0.175-17.637,0.357-26.337,1.488
		c-4.817,0.626-6.465-0.646-6.722-5.116c-0.133-2.313-0.347-4.719-1.105-6.879c-1.77-5.036,0.434-6.874,5.095-7.822
		c12.994-2.642,26.111-3.872,39.178-1.624c15.794,2.718,22.818,10.43,23.316,26.355c0.635,20.305,0.19,40.644,0.286,60.968
		c0.014,3.067-1.525,4.195-4.277,4.215c-4.164,0.031-8.384,0.402-12.471-0.161C317.738,137.02,315.949,134.985,314.75,134.201z
		 M311.484,103.889c-5.527,0-10.794-0.186-16.042,0.053c-5.154,0.234-6.991,2.479-6.931,7.664c0.062,5.361,2.158,7.493,7.514,7.64
		C309.27,119.609,312.833,116.275,311.484,103.889z"/>
	<path fill="#FFFFFF" d="M41.557,12.046C38.9,7.754,36.914,4.548,34.929,1.342C35.311,0.895,35.693,0.447,36.075,0
		C50.183,2.947,64.29,5.893,79.438,9.057C71.476,22.485,64.127,34.88,56.778,47.275c-0.622-0.113-1.244-0.227-1.867-0.34
		c-0.91-3.544-1.819-7.088-3.093-12.048c-5.381,3.985-10.307,7.634-15.826,11.721c-6.586-2.799-12.781-7.274-17.656-13.623
		c-1.992-2.593-1.612-4.011,1.237-5.841C26.955,22.404,34.062,17.236,41.557,12.046z"/>
	<path fill="#FFFFFF" d="M101.445,139.564c2.663,4.091,4.664,7.165,6.665,10.24c-0.365,0.518-0.731,1.036-1.096,1.554
		c-14.009-2.871-28.017-5.743-43.424-8.901c7.876-13.355,15.225-25.817,22.574-38.279c0.644,0.168,1.288,0.336,1.932,0.505
		c0.941,3.564,1.881,7.127,3.146,11.921c4.224-3.181,8.347-5.649,11.631-8.952c2.858-2.875,5.09-2.839,8.22-0.89
		c6.246,3.889,11.978,8.215,15.478,14.85C118.074,127.683,109.895,133.527,101.445,139.564z"/>
	<path fill="#FFFFFF" d="M98.314,9.375c9.378,6.849,18.324,13.382,26.978,19.702c-6.923,4.581-14.143,9.357-21.601,14.292
		c-4.15-2.609-8.956-5.468-13.538-8.649c-0.902-0.627-1.442-2.557-1.297-3.785C89.813,22.844,92.729,15.559,98.314,9.375z"/>
	<path fill="#FFFFFF" d="M39.383,108.3c4.206,2.67,8.715,5.432,13.09,8.391c0.914,0.618,1.989,2.041,1.881,2.963
		c-1.001,8.524-3.763,16.323-9.625,22.624c-9.405-6.855-18.356-13.38-27.033-19.705C24.654,117.994,31.898,113.227,39.383,108.3z"/>
	<path fill="#FFFFFF" d="M143.083,80.557c-3.641,11.04-7.057,21.398-10.394,31.515c-6.389-5.083-13.181-10.488-20.245-16.108
		c1.244-4.683,2.606-10.087,4.172-15.432c0.263-0.897,1.302-2.044,2.157-2.218C127.092,76.623,135.239,77.038,143.083,80.557z"/>
	<path fill="#FFFFFF" d="M30.6,55.507c-1.283,4.796-2.594,10.074-4.173,15.271c-0.298,0.982-1.57,2.211-2.541,2.361
		C15.792,74.388,7.759,74.56,0,70.855C3.527,60.055,6.95,49.57,10.289,39.343C16.843,44.559,23.731,50.041,30.6,55.507z"/>
	<path fill="#FFFFFF" d="M10.618,113.527C7.181,102.903,3.745,92.283,0.475,82.174c8.366,0.393,16.899,0.793,25.844,1.214
		c1.815,4.511,4.039,9.807,6.011,15.195c0.291,0.795-0.373,2.21-0.999,3.028C27.192,107.012,17.931,112.265,10.618,113.527z"/>
	<path fill="#FFFFFF" d="M116.554,68.012c-1.985-5.305-4.064-10.858-6.305-16.846c5.941-6.301,12.793-11.747,22.095-13.305
		c3.512,10.809,6.872,21.154,10.179,31.333C134.139,68.812,125.494,68.418,116.554,68.012z"/>
</g>
</svg>
