<?xml version="1.0" encoding="utf-8"?>
<!-- Generator: Adobe Illustrator 21.0.2, SVG Export Plug-In . SVG Version: 6.00 Build 0)  -->
<svg version="1.1" id="bitbucket" xmlns="http://www.w3.org/2000/svg" xmlns:xlink="http://www.w3.org/1999/xlink" x="0px" y="0px"
	 viewBox="0 0 821.2 141.3" style="enable-background:new 0 0 821.2 141.3;" xml:space="preserve">
<style type="text/css">
	.st0{fill:#FFFFFF;}
</style>
<g>
	<g>
		<g>
			<g>
				<g>
					<path class="st0" d="M404.8,41.6c-9.2,0-18.5,2.3-24.9,4.6V11.7c0-1.7-1.4-3.1-3.2-3.1h-18.6c-1.7,0-3.1,1.4-3.1,3.1v119
						c0,1.5,1.1,2.8,2.6,3.1c11.5,2.1,25,2.8,33.2,2.8c35,0,42.1-14.9,42.1-37.2v-26C432.9,52.2,423.5,41.6,404.8,41.6z M391.9,115
						c-4.7,0-8.6-0.2-11.9-0.6V67.8c5.1-2.3,12.3-4.6,18.1-4.6c7.1,0,9.9,2.8,9.9,9.6v27.3C408,109.9,405.5,115,391.9,115z"/>
					<path class="st0" d="M518.6,43.4H500c-1.7,0-3.1,1.4-3.1,3.1v58.9c-6.7,3.4-16.2,6.9-21.8,6.9c-4.2,0-5.7-1.5-5.7-5.7V46.5
						c0-1.7-1.4-3.1-3.2-3.1h-18.6c-1.8,0-3.2,1.4-3.2,3.1V109c0,18.3,7.2,27.6,21.4,27.6c9.9,0,23.3-3.4,34.7-8.7l1.4,4.6
						c0.4,1.3,1.6,2.3,3,2.3h13.8c1.7,0,3.2-1.4,3.2-3.1V46.5C521.8,44.8,520.4,43.4,518.6,43.4z"/>
					<path class="st0" d="M593.6,115.5c-0.1-0.9-0.6-1.6-1.3-2.1s-1.6-0.7-2.5-0.5c-5.3,1.2-10.9,1.9-16.2,1.9
						c-11.8,0-15.2-3-15.2-13.4V76.8c0-10.4,3.4-13.4,15.2-13.4c2.8,0,9.8,0.4,16.2,1.9c0.9,0.2,1.8,0,2.5-0.5s1.2-1.3,1.3-2.1
						l2.2-14.7c0.2-1.6-0.7-3-2.2-3.5c-7.2-2.1-15.6-2.9-20.5-2.9c-28.1,0-39.6,10.2-39.6,35.4v24.2c0,25.1,11.5,35.4,39.6,35.4
						c6.8,0,14.7-1.1,20.5-2.9c1.5-0.4,2.4-1.9,2.2-3.5L593.6,115.5z"/>
					<path class="st0" d="M721.8,41.6c-25,0-38.1,12.4-38.1,35.9V101c0,24.3,12.4,35.6,38.9,35.6c10.8,0,22.3-1.9,31.6-5.2
						c1.5-0.5,2.4-2.1,2-3.6l-2.8-13.3c-0.2-0.9-0.7-1.6-1.5-2.1s-1.7-0.6-2.5-0.3c-8.6,2.4-16.7,3.6-24.9,3.6
						c-13.6,0-16-4.4-16-13.6v-3.2h46.2c1.8,0,3.1-1.4,3.1-3.2V78.6C757.9,53.3,746.5,41.6,721.8,41.6z M708.6,78.3v-3
						c0-8.8,4.3-12.9,13.4-12.9c10.1,0,12.1,4.9,12.1,12.9v3H708.6z"/>
					<path class="st0" d="M274.1,43.3h-18.6c-1.7,0-3.2,1.4-3.2,3.1v85.1c0,1.7,1.4,3.2,3.2,3.2h18.6c1.8,0,3.2-1.4,3.2-3.2v-85
						C277.2,44.8,275.8,43.3,274.1,43.3z"/>
					<path class="st0" d="M274.1,8.5h-18.6c-1.7,0-3.2,1.4-3.2,3.2v16c0,1.8,1.4,3.2,3.2,3.2h18.6c1.8,0,3.2-1.4,3.2-3.2v-16
						C277.2,9.9,275.8,8.5,274.1,8.5z"/>
					<g>
						<path class="st0" d="M227.2,69.9c7.7-4.2,11.1-10.2,11.1-19.3V38c0-18.3-11-27.2-33.6-27.2h-45.9c-1.7,0-3.1,1.4-3.1,3.1
							v117.6c0,1.7,1.4,3.2,3.1,3.2H208c21.9,0,34.5-10.6,34.5-29.2V92.6C242.5,81.5,236.8,73.3,227.2,69.9z M181.3,32.4H202
							c9.4,0,10.7,4.1,10.7,8.5v10.7c0,7-3.3,9.9-10.9,9.9h-4.5c-1.8,0-3.2,1.4-3.2,3.2v14.8c0,1.8,1.4,3.2,3.2,3.2h8.1
							c8.1,0,11.4,3.1,11.4,10.8v9.1c0,7.8-3.4,10.5-13.4,10.5h-22.1L181.3,32.4L181.3,32.4z"/>
					</g>
					<path class="st0" d="M344,116.6c-0.1-0.9-0.6-1.7-1.3-2.2s-1.7-0.7-2.5-0.4c-3.3,0.8-6.4,1.3-8.9,1.3c-4.6,0-6.6-2-6.6-6.5v-45
						h18.1c1.7,0,3.1-1.4,3.1-3.2V46.5c0-1.7-1.4-3.1-3.1-3.1h-18.1V21.7c0-0.9-0.4-1.8-1.1-2.4c-0.7-0.6-1.6-0.9-2.5-0.7l-18.6,2.6
						c-1.6,0.2-2.7,1.6-2.7,3.1v19.1h-10.1c-1.7,0-3.2,1.4-3.2,3.1v14.1c0,1.7,1.4,3.2,3.2,3.2h10.1v48c0,16.5,8.6,24.8,25.7,24.8
						c4.9,0,13.1-1.1,18.5-3c1.5-0.5,2.3-1.9,2.1-3.5L344,116.6z"/>
					<path class="st0" d="M819.3,116.6c-0.1-0.9-0.6-1.7-1.4-2.2c-0.7-0.5-1.7-0.7-2.5-0.4c-3.3,0.8-6.4,1.3-8.9,1.3
						c-4.6,0-6.7-2-6.7-6.5v-45h18.1c1.8,0,3.1-1.4,3.1-3.1V46.5c0-1.7-1.4-3.1-3.1-3.1h-18.1V21.7c0-0.9-0.4-1.8-1.1-2.4
						s-1.6-0.9-2.5-0.7l-18.6,2.6c-1.6,0.2-2.7,1.6-2.7,3.1v19.1h-10.1c-1.7,0-3.1,1.4-3.1,3.1v14.1c0,1.7,1.4,3.1,3.1,3.1h10.1v48
						c0,16.5,8.7,24.8,25.7,24.8c4.9,0,13.1-1.1,18.5-3c1.4-0.5,2.3-1.9,2.1-3.5L819.3,116.6z"/>
				</g>
			</g>
		</g>
	</g>
	<path class="st0" d="M680.8,129.5l-24.9-41.1l24-40.4c0.6-1,0.6-2.2,0-3.2s-1.6-1.6-2.7-1.6h-20.6c-1.1,0-2.2,0.6-2.7,1.6
		l-22.8,39.6V11.7c0-1.7-1.4-3.2-3.2-3.2h-18.6c-1.7,0-3.2,1.4-3.2,3.2v119.9c0,1.7,1.4,3.1,3.2,3.1h18.6c1.7,0,3.2-1.4,3.2-3.1
		V92.4l24.3,40.7c0.6,1,1.6,1.5,2.7,1.5h20.2l0,0c1.7,0,3.2-1.4,3.2-3.1C681.4,130.7,681.2,130,680.8,129.5z"/>
	<path class="st0" d="M61.2,0L61.2,0L61.2,0C27.5,0,0,9.1,0,20.3c0,3,7.3,45.4,10.3,62.3c1.3,7.6,20.8,18.6,50.9,18.6v-0.1v0.1
		c30.1,0,49.6-11.1,50.9-18.6c2.9-16.8,10.3-59.3,10.3-62.3C122.3,9.1,94.8,0,61.2,0z M61.2,87.6c-10.7,0-19.4-8.7-19.4-19.4
		s8.7-19.4,19.4-19.4c10.7,0,19.4,8.7,19.4,19.4S71.9,87.6,61.2,87.6z M61.2,26.6c-21.6,0-39.2-3.8-39.2-8.4s17.6-8.3,39.2-8.3
		s39.2,3.8,39.2,8.4C100.3,22.9,82.8,26.6,61.2,26.6z"/>
	<path class="st0" d="M105.1,99.5c-0.9,0-1.7,0.7-1.7,0.7s-15.1,11.9-42.3,11.9c-27.2,0-42.3-11.9-42.3-11.9s-0.7-0.7-1.7-0.7
		c-1.1,0-2.2,0.7-2.2,2.4c0,0.2,0,0.3,0,0.5c2.3,12.5,4,21.4,4.3,22.7c2,9.2,20,16.2,41.7,16.2l0,0l0,0l0,0l0,0
		c21.7,0,39.7-6.9,41.7-16.2c0.3-1.4,2-10.2,4.3-22.7c0-0.2,0-0.3,0-0.5C107.3,100.2,106.2,99.5,105.1,99.5z"/>
	<circle class="st0" cx="61.2" cy="68.1" r="9.7"/>
</g>
</svg>
