<?xml version="1.0" encoding="utf-8"?>
<!-- Generator: Adobe Illustrator 21.1.0, SVG Export Plug-In . SVG Version: 6.00 Build 0)  -->
<svg version="1.1" id="Layer_1" xmlns="http://www.w3.org/2000/svg" xmlns:xlink="http://www.w3.org/1999/xlink" x="0px" y="0px"
	 viewBox="0 0 633 317.526" enable-background="new 0 0 633 317.526" xml:space="preserve">
<g>
	<path fill="#FFFFFF" d="M519,316.727c7.333-0.35,15.324-2.236,22.448-4.007c14.208-3.533,26.703-10.513,38.318-19.248
		c10.801-8.123,18.874-18.631,24.98-30.436c5.285-10.218,8.04-21.34,9.446-32.921c1.55-12.757,1.1-25.18-2.721-37.384
		c-5.615-17.928-17.504-31.458-32.509-41.807c-15.69-10.822-32.5-20.007-48.622-30.222c-8.385-5.313-15.341-11.983-17.396-22.462
		c-1.574-8.026,2.946-19.717,9.704-24.472c14.707-10.347,31.05-10.985,48.219-9.266c14.755,1.478,28.423,5.845,42.314,12.173
		c2.586-6.802,5.252-13.682,7.817-20.599c3.474-9.371,6.85-18.778,10.334-28.145c0.307-0.827,1.101-1.473,1.668-2.203
		c0-1.333,0-2.667,0-4c-4.911-2.005-9.728-4.291-14.749-5.967c-23.854-7.963-48.312-9.396-73.245-7.14
		c-19.374,1.752-37.461,7.024-54.262,16.794c-19.56,11.375-33.974,27.202-41.449,48.75c-5.108,14.722-7.131,29.981-3.848,45.341
		c4.783,22.374,18.583,38.78,37.075,51.182c14.771,9.906,30.403,18.52,45.401,28.101c12.005,7.669,19.573,17.974,18.145,33.311
		c-1.407,15.112-9.32,24.907-22.991,28.463c-17.996,4.682-36.271,2.324-54.298-0.587c-9.931-1.603-19.671-4.388-29.493-6.64
		c2.315,19.837,4.651,39.847,7.003,60.001c7.211,0.842,13.857,1.518,20.475,2.404C487.833,318.56,505.954,317.349,519,316.727z"/>
	<path fill="#FFFFFF" d="M253.329,13.966c0,0-12.425,36.202-18.103,52.743c-12.458-2.725-24.269-6.352-36.339-7.744
		c-31.299-3.612-61.082,1.315-86.114,21.816C95.006,95.333,83.28,114.31,76.792,136.683c-4.73,16.312-6.746,32.792-5.651,49.532
		c1.335,20.404,8.031,38.958,23.845,52.828c10.945,9.6,23.982,15.603,38.654,16.564c13.711,0.898,27.488,1.012,41.235,1.009
		c5.625-0.001,11.251-1.217,18.106-2.026c-9.544,19.956-18.654,39.005-28.281,59.136c-10.33,0-20.76,0.468-31.133-0.099
		c-20.484-1.12-40.916-2.897-60.191-10.901c-11.498-4.775-21.967-11.339-31.227-19.51c-12.732-11.236-23.986-23.88-30.757-39.751
		c-4.838-11.341-8.155-23.173-9.398-35.512C1.35,201.543,0.667,195.135,0,188.727c0-2.667,0-5.333,0-8
		c0.333-0.989,0.887-1.961,0.963-2.969c0.41-5.412,0.647-10.837,1.044-16.25c1.254-17.099,5.659-33.392,11.783-49.392
		c12.132-31.694,31.684-58.27,58.828-78.484C107.5,7.654,160.5-15.94,253.329,13.966z"/>
	<path fill="#FFFFFF" d="M428.013,211.816c7.124,3.269,17.22,8.044,23.239,12.002c7.948,5.226,19.12,14.145,29.613,22.315
		l0.886,0.625c1.642-0.848,0,0,1.642-0.848c-7.577-9.704-15.675-17.486-25.585-24.058c-9.927-6.583-20.651-12.963-31.029-18.874
		c-0.257-1.238-0.633-2.468-0.759-3.722c-0.721-7.172-1.262-14.365-2.094-21.523c-1.205-10.368-2.682-20.705-3.898-31.072
		c-0.821-6.993-1.27-14.03-2.106-21.02c-1.201-10.035-2.715-20.034-3.888-30.072c-1.159-9.914-1.981-19.868-3.098-29.787
		c-1.224-10.865-2.618-21.711-3.933-32.566c-0.82-6.766-1.631-13.534-2.44-20.25c-27.974,0-55.731,0-83.612,0
		c-48.714,99.814-97.359,199.487-146.19,299.542c23.602,0,46.69,0,69.986,0c1.73-3.895,3.463-7.892,5.273-11.855
		c8.654-18.95,17.328-37.891,25.996-56.835 M276.013,243.815c6.709,2.885,13.418,5.77,18.875,8.118
		c9.131-8.354,17.575-16.907,26.88-24.387c12.036-9.674,26.292-15.093,41.219-18.732c0.339,5.9,0.663,11.8,1.021,17.698
		c0.319,5.253,0.599,10.509,1.029,15.753c1.286,15.682,2.617,31.36,3.972,47.036c0.671,7.761,1.433,15.515,2.14,23.123
		c22.928,0,45.324,0,67.853,0c-0.392-4.878-0.62-9.464-1.156-14.014c-1.2-10.196-2.629-20.365-3.819-30.561
		c-0.815-6.987-1.323-14.01-2.08-21.005c-1.264-11.681-2.618-23.353-3.934-35.028 M293.012,202.631
		c2.653-6.9,5.035-13.92,8.012-20.678c7.941-18.03,16.406-35.833,24.161-53.942c8.631-20.153,16.706-40.544,25.044-60.823
		c0.299-0.727,0.819-1.362,1.464-2.411c0.513,0.982,1.209,1.717,1.251,2.488c0.414,7.581,0.517,15.185,1.099,22.751
		c1.182,15.365,2.635,30.709,3.918,46.067c0.738,8.836,1.383,17.681,2.034,26.524c0.687,9.34,1.331,18.682,1.994,28.024
		C338.249,190.337,315.265,194.387,293.012,202.631"/>
</g>
</svg>
