<?xml version="1.0" encoding="utf-8"?>
<!-- Generator: Adobe Illustrator 21.0.2, SVG Export Plug-In . SVG Version: 6.00 Build 0)  -->
<svg version="1.1" xmlns="http://www.w3.org/2000/svg" xmlns:xlink="http://www.w3.org/1999/xlink" x="0px" y="0px"
	 viewBox="0 0 382.9 83.3" style="enable-background:new 0 0 382.9 83.3;" xml:space="preserve">
<style type="text/css">
	.st0{fill:#FFFFFF;}
</style>
<g id="Layer_1">
</g>
<g id="Layer_2">
	<path class="st0" d="M221.2,32.4h-15.2V34c4.7,0,5.5,1,5.5,7v10.8c0,6-0.8,7.1-5.5,7.1c-3.6-0.5-6.1-2.5-9.5-6.2l-3.9-4.2
		c5.2-0.9,8-4.2,8-8c0-4.7-4-8.2-11.4-8.2h-14.9V34c4.7,0,5.5,1,5.5,7v10.8c0,6-0.8,7.1-5.5,7.1v1.6h16.8v-1.6
		c-4.7,0-5.5-1.1-5.5-7.1v-3h1.4l9.4,11.8h24.6c12.1,0,17.4-6.4,17.4-14.1C238.6,38.7,233.3,32.4,221.2,32.4z M185.8,46.2V34.9h3.5
		c3.8,0,5.5,2.6,5.5,5.7c0,3-1.7,5.6-5.5,5.6H185.8z M221.5,57.9h-0.6c-3,0-3.5-0.8-3.5-4.7V34.9c0,0,3.7,0,4.1,0
		c8.8,0,10.4,6.4,10.4,11.4C231.9,51.5,230.3,57.9,221.5,57.9z"/>
	<path class="st0" d="M127.3,49.3l5.8-17.3c1.7-5,0.9-6.4-4.5-6.4v-1.7h15.9v1.7c-5.3,0-6.6,1.3-8.7,7.4L126.2,62h-1.1l-8.6-26.5
		L107.6,62h-1.1L97.1,33c-2-6.2-3.4-7.4-8.3-7.4v-1.7h18.8v1.7c-5,0-6.3,1.2-4.6,6.4l5.7,17.3l8.5-25.4h1.6L127.3,49.3z"/>
	<path class="st0" d="M156,61.7c-9.3,0-16.9-6.9-16.9-15.2c0-8.3,7.6-15.2,16.9-15.2c9.3,0,16.9,6.9,16.9,15.2
		C173,54.8,165.4,61.7,156,61.7z M156,33.9c-7.8,0-10.5,7-10.5,12.5c0,5.6,2.7,12.5,10.5,12.5c7.9,0,10.6-6.9,10.6-12.5
		C166.6,40.9,163.9,33.9,156,33.9z"/>
	<path class="st0" d="M259.5,58.9v1.7h-19.4v-1.7c5.7,0,6.7-1.4,6.7-9.9V35.4c0-8.5-1-9.8-6.7-9.8v-1.7h17.5
		c8.7,0,13.5,4.5,13.5,10.5c0,5.8-4.8,10.4-13.5,10.4h-4.8V49C252.8,57.4,253.8,58.9,259.5,58.9z M257.6,27h-4.8v14.7h4.8
		c4.7,0,6.9-3.3,6.9-7.3C264.6,30.3,262.4,27,257.6,27z"/>
	<path class="st0" d="M329.3,52.6l-0.4,1.5c-0.8,2.8-1.7,3.8-7.7,3.8H320c-4.4,0-5.2-1-5.2-7V47c6.6,0,7.1,0.6,7.1,5h1.6V39.4h-1.6
		c0,4.4-0.5,5-7.1,5v-9.5h4.7c6,0,6.9,1,7.7,3.8l0.4,1.6h1.4l-0.6-8h-24.9V34c4.7,0,5.5,1,5.5,7v10.8c0,5.5-0.6,6.9-4.4,7.1
		c-3.6-0.5-6-2.5-9.3-6.1l-3.9-4.2c5.2-0.9,8-4.2,8-8c0-4.7-4-8.2-11.4-8.2h-14.9V34c4.7,0,5.5,1,5.5,7v10.8c0,6-0.8,7.1-5.5,7.1
		v1.6h16.8v-1.6c-4.7,0-5.5-1.1-5.5-7.1v-3h1.4l9.4,11.8h34.8l0.5-8H329.3z M284.4,46.2V34.9h3.5c3.8,0,5.5,2.6,5.5,5.7
		c0,3-1.7,5.6-5.5,5.6H284.4z"/>
	<path class="st0" d="M346.5,61.7c-3.4,0-6.3-1.8-7.6-2.9c-0.4,0.4-1.2,1.7-1.4,2.9h-1.6V50h1.7c0.7,5.6,4.6,8.9,9.6,8.9
		c2.7,0,4.9-1.5,4.9-4.1c0-2.2-1.9-3.9-5.4-5.5l-4.8-2.3c-3.4-1.6-5.9-4.4-5.9-8.1c0-4.1,3.8-7.5,9.1-7.5c2.8,0,5.2,1,6.6,2.2
		c0.4-0.3,0.8-1.3,1.1-2.3h1.6v10h-1.8c-0.6-4-2.8-7.3-7.3-7.3c-2.4,0-4.6,1.4-4.6,3.5c0,2.2,1.8,3.4,5.8,5.2l4.7,2.3
		c4.1,1.9,5.7,5.1,5.7,7.6C356.8,57.9,352.1,61.7,346.5,61.7z"/>
	<path class="st0" d="M372.5,61.7c-3.4,0-6.3-1.8-7.6-2.9c-0.4,0.4-1.2,1.7-1.4,2.9H362V50h1.7c0.7,5.6,4.6,8.9,9.6,8.9
		c2.7,0,4.9-1.5,4.9-4.1c0-2.2-1.9-3.9-5.4-5.5l-4.8-2.3c-3.4-1.6-5.9-4.4-5.9-8.1c0-4.1,3.8-7.5,9.1-7.5c2.8,0,5.2,1,6.6,2.2
		c0.4-0.3,0.8-1.3,1.1-2.3h1.6v10h-1.8c-0.6-4-2.8-7.3-7.3-7.3c-2.4,0-4.6,1.4-4.6,3.5c0,2.2,1.8,3.4,5.8,5.2l4.7,2.3
		c4.1,1.9,5.7,5.1,5.7,7.6C382.9,57.9,378.2,61.7,372.5,61.7z"/>
	<g>
		<path class="st0" d="M41.7,0C18.7,0,0,18.7,0,41.7c0,23,18.7,41.7,41.7,41.7c23,0,41.7-18.7,41.7-41.7C83.3,18.7,64.6,0,41.7,0z
			 M4.2,41.7c0-5.4,1.2-10.6,3.2-15.2l17.9,49C12.8,69.3,4.2,56.5,4.2,41.7z M41.7,79.1c-3.7,0-7.2-0.5-10.6-1.5l11.2-32.7
			l11.5,31.5c0.1,0.2,0.2,0.4,0.3,0.5C50.2,78.4,46,79.1,41.7,79.1z M46.8,24.1c2.3-0.1,4.3-0.4,4.3-0.4c2-0.2,1.8-3.2-0.2-3.1
			c0,0-6.1,0.5-10,0.5c-3.7,0-9.9-0.5-9.9-0.5c-2-0.1-2.3,3-0.2,3.1c0,0,1.9,0.2,3.9,0.4l5.8,16l-8.2,24.6L18.7,24.1
			C21,24,23,23.7,23,23.7c2-0.2,1.8-3.2-0.2-3.1c0,0-6.1,0.5-10,0.5c-0.7,0-1.5,0-2.4,0C17.1,10.9,28.6,4.2,41.7,4.2
			c9.8,0,18.6,3.7,25.3,9.8c-0.2,0-0.3,0-0.5,0c-3.7,0-6.3,3.2-6.3,6.6c0,3.1,1.8,5.7,3.7,8.8c1.4,2.5,3.1,5.7,3.1,10.3
			c0,3.2-1.2,6.9-2.9,12.1l-3.7,12.5L46.8,24.1z M74.5,23.7c2.9,5.3,4.6,11.5,4.6,18c0,13.8-7.5,25.9-18.6,32.4L71.9,41
			c2.1-5.3,2.8-9.6,2.8-13.4C74.8,26.2,74.7,24.9,74.5,23.7z"/>
	</g>
</g>
</svg>
